<?xml version="1.0" encoding="utf-8"?>
<!-- Generator: Adobe Illustrator 24.0.1, SVG Export Plug-In . SVG Version: 6.00 Build 0)  -->
<svg version="1.1" id="Layer_1" xmlns="http://www.w3.org/2000/svg" xmlns:xlink="http://www.w3.org/1999/xlink" x="0px" y="0px"
	 viewBox="0 0 30 30" style="enable-background:new 0 0 30 30;" xml:space="preserve">
<style type="text/css">
	.st0{fill:#EE2E30;}
	.st1{fill:#002856;}
	.st2{fill:#FFFFFF;}
	.st3{fill-rule:evenodd;clip-rule:evenodd;fill:#FFFFFF;}
	.st4{fill:url(#SVGID_1_);}
	.st5{fill:url(#SVGID_2_);}
	.st6{fill:url(#SVGID_3_);}
	.st7{fill:url(#SVGID_4_);}
	.st8{fill:url(#SVGID_5_);}
	.st9{fill:#00BBB4;}
	.st10{fill:#A2A9AD;}
	.st11{fill:#3279BE;}
	.st12{fill:url(#SVGID_6_);}
	.st13{fill:#00B8E9;}
	.st14{fill:url(#SVGID_7_);}
	.st15{fill:#010101;}
	.st16{fill-rule:evenodd;clip-rule:evenodd;fill:#EE2D59;}
	.st17{fill-rule:evenodd;clip-rule:evenodd;fill:#19BEC9;}
	.st18{fill:#00A650;}
	.st19{opacity:0.8;fill:url(#SVGID_8_);}
	.st20{fill:url(#SVGID_9_);}
	.st21{fill:url(#SVGID_10_);}
	.st22{fill:url(#SVGID_11_);}
	.st23{fill:url(#SVGID_12_);}
	.st24{fill:url(#SVGID_13_);}
	.st25{fill:url(#SVGID_14_);}
</style>
<g>
	
		<linearGradient id="SVGID_1_" gradientUnits="userSpaceOnUse" x1="249.361" y1="-575.3444" x2="274.7506" y2="-549.9548" gradientTransform="matrix(0 1 -1 0 -547.6496 -247.0558)">
		<stop  offset="0" style="stop-color:#F0524A"/>
		<stop  offset="1" style="stop-color:#ED1940"/>
	</linearGradient>
	<path class="st4" d="M0,22.15V7.85C0,3.53,3.53,0,7.85,0h14.31C26.47,0,30,3.53,30,7.85l0,14.31c0,4.32-3.53,7.85-7.85,7.85H7.85
		C3.53,30,0,26.47,0,22.15z"/>
	<path class="st3" d="M13.85,18.26c-0.02,0.05-0.03,0.1-0.04,0.14c-0.67,2.62-0.74,3.2-1.43,4.42c-0.33,0.58-0.7,1.13-1.1,1.65
		c-0.05,0.06-0.09,0.14-0.18,0.12c-0.1-0.02-0.11-0.11-0.12-0.19c-0.11-0.8-0.17-1.59-0.14-2.4c0.03-1.05,0.16-1.41,1.51-7.08
		c0.02-0.09,0-0.16-0.03-0.24c-0.32-0.87-0.39-1.76-0.1-2.65c0.61-1.94,2.81-2.08,3.19-0.49c0.24,0.99-0.39,2.28-0.87,4.19
		c-0.4,1.58,1.46,2.7,3.04,1.55c1.46-1.06,2.03-3.6,1.92-5.41c-0.21-3.59-4.15-4.37-6.65-3.21c-2.87,1.33-3.52,4.88-2.22,6.5
		c0.16,0.21,0.29,0.33,0.24,0.54c-0.08,0.33-0.16,0.65-0.25,0.98c-0.07,0.24-0.27,0.33-0.51,0.23c-0.48-0.19-0.87-0.5-1.2-0.9
		c-1.1-1.36-1.41-4.05,0.04-6.33c1.61-2.53,4.61-3.55,7.34-3.24c3.27,0.37,5.33,2.6,5.72,5.13c0.18,1.15,0.05,4-1.57,6.01
		c-1.86,2.31-4.88,2.46-6.27,1.05C14.04,18.52,13.95,18.39,13.85,18.26z"/>
</g>
</svg>
